<svg width="74" height="26" viewBox="0 0 74 26" fill="none" xmlns="http://www.w3.org/2000/svg">
<path d="M21.98 24.028C21.98 24.4573 21.8493 24.84 21.588 25.176C21.3453 25.5307 20.888 25.708 20.216 25.708H7.112C6.44 25.708 5.97333 25.5307 5.712 25.176C5.46933 24.84 5.348 24.4573 5.348 24.028V18.512C5.348 18.0827 5.46933 17.7 5.712 17.364C5.97333 17.0093 6.44 16.832 7.112 16.832H11.984V15.824C11.984 15.7493 11.9747 15.684 11.956 15.628C11.9373 15.572 11.8627 15.544 11.732 15.544H1.484C0.793333 15.544 0.438667 15.0773 0.42 14.144C0.42 13.192 0.774667 12.716 1.484 12.716H13.552C14.224 12.716 14.6813 12.8933 14.924 13.248C15.1853 13.584 15.316 13.9667 15.316 14.396V16.832H20.216C20.888 16.832 21.3453 17.0093 21.588 17.364C21.8493 17.7 21.98 18.0827 21.98 18.512V24.028ZM3.92 4.372C3.22933 4.372 2.87467 3.90533 2.856 2.972C2.856 2.02 3.21067 1.544 3.92 1.544H20.328C21.056 1.544 21.4107 2.02 21.392 2.972C21.392 3.90533 21.0373 4.372 20.328 4.372H3.92ZM10.472 9.832C10.472 10.2613 10.3413 10.6533 10.08 11.008C9.83733 11.344 9.38 11.512 8.708 11.512H3.892C3.18267 11.512 2.828 11.0453 2.828 10.112C2.84667 9.16 3.20133 8.684 3.892 8.684H6.888C7.01867 8.684 7.09333 8.656 7.112 8.6C7.13067 8.544 7.14 8.47867 7.14 8.404V6.136C7.14 5.24 7.69067 4.792 8.792 4.792C9.912 4.792 10.472 5.24 10.472 6.136V9.832ZM15.54 11.512C14.868 11.512 14.4013 11.344 14.14 11.008C13.8973 10.6533 13.776 10.2613 13.776 9.832V6.136C13.776 5.24 14.3267 4.792 15.428 4.792C16.548 4.792 17.108 5.24 17.108 6.136V8.404C17.108 8.47867 17.1173 8.544 17.136 8.6C17.1547 8.656 17.2293 8.684 17.36 8.684H20.328C21.0187 8.684 21.364 9.16 21.364 10.112C21.3827 11.0453 21.0373 11.512 20.328 11.512H15.54ZM18.648 19.94C18.648 19.8653 18.6387 19.8 18.62 19.744C18.6013 19.688 18.5267 19.66 18.396 19.66H8.932C8.80133 19.66 8.72667 19.688 8.708 19.744C8.68933 19.8 8.68 19.8653 8.68 19.94V22.6C8.68 22.6747 8.68933 22.74 8.708 22.796C8.72667 22.852 8.80133 22.88 8.932 22.88H18.396C18.5267 22.88 18.6013 22.852 18.62 22.796C18.6387 22.74 18.648 22.6747 18.648 22.6V19.94ZM50.7485 10.924C50.7485 11.5213 50.5338 12.0347 50.1045 12.464C49.6938 12.8747 49.1898 13.08 48.5925 13.08C47.9951 13.08 47.4818 12.8747 47.0525 12.464C46.6418 12.0347 46.4365 11.5213 46.4365 10.924C46.4365 10.3267 46.6418 9.82267 47.0525 9.412C47.4818 8.98267 47.9951 8.768 48.5925 8.768C49.1898 8.768 49.6938 8.98267 50.1045 9.412C50.5338 9.82267 50.7485 10.3267 50.7485 10.924ZM45.5125 23.384C45.5125 24.28 44.9525 24.728 43.8325 24.728C42.7311 24.728 42.1805 24.28 42.1805 23.384V2.272C42.1805 1.376 42.7311 0.927998 43.8325 0.927998C44.9525 0.927998 45.5125 1.376 45.5125 2.272V23.384ZM39.4645 11.176C39.4645 13.8827 38.8298 16.216 37.5605 18.176C36.3098 20.136 34.6018 21.116 32.4365 21.116C30.2898 21.116 28.5725 20.1453 27.2845 18.204C25.9965 16.2627 25.3525 13.92 25.3525 11.176C25.3525 8.432 25.9965 6.08933 27.2845 4.148C28.5725 2.20667 30.2898 1.236 32.4365 1.236C34.6205 1.236 36.3378 2.216 37.5885 4.176C38.8391 6.11733 39.4645 8.45067 39.4645 11.176ZM36.1885 11.176C36.1885 9.17867 35.8618 7.49867 35.2085 6.136C34.5738 4.75467 33.6498 4.064 32.4365 4.064C31.2605 4.064 30.3365 4.75467 29.6645 6.136C29.0111 7.49867 28.6845 9.17867 28.6845 11.176C28.6845 13.1733 29.0111 14.8627 29.6645 16.244C30.3365 17.6067 31.2605 18.288 32.4365 18.288C33.6498 18.288 34.5738 17.6067 35.2085 16.244C35.8618 14.8627 36.1885 13.1733 36.1885 11.176ZM73.9215 23.384C73.9215 24.28 73.3615 24.728 72.2415 24.728C71.1402 24.728 70.5895 24.28 70.5895 23.384V2.272C70.5895 1.376 71.1402 0.927998 72.2415 0.927998C73.3615 0.927998 73.9215 1.376 73.9215 2.272V23.384ZM66.7535 11.176C66.7535 13.8827 66.1189 16.216 64.8495 18.176C63.5989 20.136 61.8909 21.116 59.7255 21.116C57.5789 21.116 55.8615 20.1453 54.5735 18.204C53.2855 16.2627 52.6415 13.92 52.6415 11.176C52.6415 8.432 53.2855 6.08933 54.5735 4.148C55.8615 2.20667 57.5789 1.236 59.7255 1.236C61.9095 1.236 63.6269 2.216 64.8775 4.176C66.1282 6.11733 66.7535 8.45067 66.7535 11.176ZM63.4775 11.176C63.4775 9.17867 63.1509 7.49867 62.4975 6.136C61.8629 4.75467 60.9389 4.064 59.7255 4.064C58.5495 4.064 57.6255 4.75467 56.9535 6.136C56.3002 7.49867 55.9735 9.17867 55.9735 11.176C55.9735 13.1733 56.3002 14.8627 56.9535 16.244C57.6255 17.6067 58.5495 18.288 59.7255 18.288C60.9389 18.288 61.8629 17.6067 62.4975 16.244C63.1509 14.8627 63.4775 13.1733 63.4775 11.176Z" fill="black"/>
</svg>
