<svg width="38" height="38" viewBox="0 0 38 38" fill="none" xmlns="http://www.w3.org/2000/svg">
<circle cx="19" cy="19" r="19" fill="#FEAA45"/>
<path d="M17.243 23.3141L13 19.0701L14.414 17.6561L17.243 20.4841L22.899 14.8271L24.314 16.2421L17.243 23.3141Z" fill="white"/>
<path fill-rule="evenodd" clip-rule="evenodd" d="M8 19C8 12.925 12.925 8 19 8C25.075 8 30 12.925 30 19C30 25.075 25.075 30 19 30C12.925 30 8 25.075 8 19ZM19 28C17.8181 28 16.6478 27.7672 15.5558 27.3149C14.4639 26.8626 13.4718 26.1997 12.636 25.364C11.8003 24.5282 11.1374 23.5361 10.6851 22.4442C10.2328 21.3522 10 20.1819 10 19C10 17.8181 10.2328 16.6478 10.6851 15.5558C11.1374 14.4639 11.8003 13.4718 12.636 12.636C13.4718 11.8003 14.4639 11.1374 15.5558 10.6851C16.6478 10.2328 17.8181 10 19 10C21.3869 10 23.6761 10.9482 25.364 12.636C27.0518 14.3239 28 16.6131 28 19C28 21.3869 27.0518 23.6761 25.364 25.364C23.6761 27.0518 21.3869 28 19 28Z" fill="white"/>
</svg>
