<svg width="18" height="19" viewBox="0 0 18 19" fill="none" xmlns="http://www.w3.org/2000/svg">
<path d="M9 12.5L12 9.5M12 9.5L9 6.5M12 9.5H1M6 4.749V4.7C6 3.58 6 3.02 6.218 2.592C6.41 2.215 6.715 1.91 7.092 1.718C7.52 1.5 8.08 1.5 9.2 1.5H13.8C14.92 1.5 15.48 1.5 15.907 1.718C16.284 1.91 16.59 2.215 16.782 2.592C17 3.019 17 3.579 17 4.697V14.304C17 15.422 17 15.981 16.782 16.408C16.59 16.7845 16.2837 17.0904 15.907 17.282C15.48 17.5 14.921 17.5 13.803 17.5H9.197C8.079 17.5 7.519 17.5 7.092 17.282C6.71569 17.0903 6.40974 16.7843 6.218 16.408C6 15.98 6 15.42 6 14.3V14.25" stroke="white" stroke-width="2" stroke-linecap="round" stroke-linejoin="round"/>
</svg>
