<svg width="85" height="29" viewBox="0 0 85 29" fill="none" xmlns="http://www.w3.org/2000/svg">
<path d="M25.12 27.032C25.12 27.5227 24.9707 27.96 24.672 28.344C24.3947 28.7493 23.872 28.952 23.104 28.952H8.128C7.36 28.952 6.82667 28.7493 6.528 28.344C6.25067 27.96 6.112 27.5227 6.112 27.032V20.728C6.112 20.2373 6.25067 19.8 6.528 19.416C6.82667 19.0107 7.36 18.808 8.128 18.808H13.696V17.656C13.696 17.5707 13.6853 17.496 13.664 17.432C13.6427 17.368 13.5573 17.336 13.408 17.336H1.696C0.906667 17.336 0.501333 16.8027 0.48 15.736C0.48 14.648 0.885333 14.104 1.696 14.104H15.488C16.256 14.104 16.7787 14.3067 17.056 14.712C17.3547 15.096 17.504 15.5333 17.504 16.024V18.808H23.104C23.872 18.808 24.3947 19.0107 24.672 19.416C24.9707 19.8 25.12 20.2373 25.12 20.728V27.032ZM4.48 4.568C3.69067 4.568 3.28533 4.03467 3.264 2.968C3.264 1.88 3.66933 1.336 4.48 1.336H23.232C24.064 1.336 24.4693 1.88 24.448 2.968C24.448 4.03467 24.0427 4.568 23.232 4.568H4.48ZM11.968 10.808C11.968 11.2987 11.8187 11.7467 11.52 12.152C11.2427 12.536 10.72 12.728 9.952 12.728H4.448C3.63733 12.728 3.232 12.1947 3.232 11.128C3.25333 10.04 3.65867 9.496 4.448 9.496H7.872C8.02133 9.496 8.10667 9.464 8.128 9.4C8.14933 9.336 8.16 9.26133 8.16 9.176V6.584C8.16 5.56 8.78933 5.048 10.048 5.048C11.328 5.048 11.968 5.56 11.968 6.584V10.808ZM17.76 12.728C16.992 12.728 16.4587 12.536 16.16 12.152C15.8827 11.7467 15.744 11.2987 15.744 10.808V6.584C15.744 5.56 16.3733 5.048 17.632 5.048C18.912 5.048 19.552 5.56 19.552 6.584V9.176C19.552 9.26133 19.5627 9.336 19.584 9.4C19.6053 9.464 19.6907 9.496 19.84 9.496H23.232C24.0213 9.496 24.416 10.04 24.416 11.128C24.4373 12.1947 24.0427 12.728 23.232 12.728H17.76ZM21.312 22.36C21.312 22.2747 21.3013 22.2 21.28 22.136C21.2587 22.072 21.1733 22.04 21.024 22.04H10.208C10.0587 22.04 9.97333 22.072 9.952 22.136C9.93067 22.2 9.92 22.2747 9.92 22.36V25.4C9.92 25.4853 9.93067 25.56 9.952 25.624C9.97333 25.688 10.0587 25.72 10.208 25.72H21.024C21.1733 25.72 21.2587 25.688 21.28 25.624C21.3013 25.56 21.312 25.4853 21.312 25.4V22.36ZM57.9983 12.056C57.9983 12.7387 57.7529 13.3253 57.2623 13.816C56.7929 14.2853 56.2169 14.52 55.5343 14.52C54.8516 14.52 54.2649 14.2853 53.7743 13.816C53.3049 13.3253 53.0703 12.7387 53.0703 12.056C53.0703 11.3733 53.3049 10.7973 53.7743 10.328C54.2649 9.83733 54.8516 9.592 55.5343 9.592C56.2169 9.592 56.7929 9.83733 57.2623 10.328C57.7529 10.7973 57.9983 11.3733 57.9983 12.056ZM52.0143 26.296C52.0143 27.32 51.3743 27.832 50.0943 27.832C48.8356 27.832 48.2063 27.32 48.2063 26.296V2.168C48.2063 1.144 48.8356 0.631998 50.0943 0.631998C51.3743 0.631998 52.0143 1.144 52.0143 2.168V26.296ZM45.1023 12.344C45.1023 15.4373 44.3769 18.104 42.9263 20.344C41.4969 22.584 39.5449 23.704 37.0703 23.704C34.6169 23.704 32.6543 22.5947 31.1823 20.376C29.7103 18.1573 28.9743 15.48 28.9743 12.344C28.9743 9.208 29.7103 6.53067 31.1823 4.312C32.6543 2.09333 34.6169 0.983999 37.0703 0.983999C39.5663 0.983999 41.5289 2.104 42.9583 4.344C44.3876 6.56267 45.1023 9.22933 45.1023 12.344ZM41.3583 12.344C41.3583 10.0613 40.9849 8.14133 40.2383 6.584C39.5129 5.00533 38.4569 4.216 37.0703 4.216C35.7263 4.216 34.6703 5.00533 33.9023 6.584C33.1556 8.14133 32.7823 10.0613 32.7823 12.344C32.7823 14.6267 33.1556 16.5573 33.9023 18.136C34.6703 19.6933 35.7263 20.472 37.0703 20.472C38.4569 20.472 39.5129 19.6933 40.2383 18.136C40.9849 16.5573 41.3583 14.6267 41.3583 12.344ZM84.4818 26.296C84.4818 27.32 83.8418 27.832 82.5618 27.832C81.3031 27.832 80.6738 27.32 80.6738 26.296V2.168C80.6738 1.144 81.3031 0.631998 82.5618 0.631998C83.8418 0.631998 84.4818 1.144 84.4818 2.168V26.296ZM76.2898 12.344C76.2898 15.4373 75.5644 18.104 74.1138 20.344C72.6844 22.584 70.7324 23.704 68.2578 23.704C65.8044 23.704 63.8418 22.5947 62.3698 20.376C60.8978 18.1573 60.1618 15.48 60.1618 12.344C60.1618 9.208 60.8978 6.53067 62.3698 4.312C63.8418 2.09333 65.8044 0.983999 68.2578 0.983999C70.7538 0.983999 72.7164 2.104 74.1458 4.344C75.5751 6.56267 76.2898 9.22933 76.2898 12.344ZM72.5458 12.344C72.5458 10.0613 72.1724 8.14133 71.4258 6.584C70.7004 5.00533 69.6444 4.216 68.2578 4.216C66.9138 4.216 65.8578 5.00533 65.0898 6.584C64.3431 8.14133 63.9698 10.0613 63.9698 12.344C63.9698 14.6267 64.3431 16.5573 65.0898 18.136C65.8578 19.6933 66.9138 20.472 68.2578 20.472C69.6444 20.472 70.7004 19.6933 71.4258 18.136C72.1724 16.5573 72.5458 14.6267 72.5458 12.344Z" fill="white"/>
</svg>
